<svg version="1.1" id="Layer_1" xmlns="http://www.w3.org/2000/svg" xmlns:xlink="http://www.w3.org/1999/xlink" x="0px" y="0px"
	 width="100%" viewBox="0 0 1040 360" enable-background="new 0 0 1040 360" xml:space="preserve">
<path fill="#FFFFFF" opacity="1.000000" stroke="none" 
	d="
M1.000000,234.000000 
	C1.000000,156.355240 1.000000,78.710487 1.000000,1.032866 
	C347.546967,1.032866 694.093933,1.032866 1041.000000,1.032866 
	C1041.000000,79.357880 1041.000000,157.716309 1040.735352,236.542358 
	C1040.294189,237.015671 1040.117676,237.021362 1039.489502,237.017090 
	C1035.688477,236.978394 1032.339355,236.949631 1028.775635,236.652466 
	C1022.878296,233.825333 1017.237793,231.166916 1011.497314,228.745377 
	C1008.079346,227.303558 1004.504395,226.234039 1001.000000,224.998566 
	C1001.000000,225.000000 1001.002441,224.999115 1000.802124,224.719666 
	C999.016846,223.570068 997.522034,222.423645 995.832947,221.872620 
	C979.333679,216.489914 963.089478,209.856903 946.201782,206.259674 
	C927.865967,202.353958 908.957764,200.924637 890.227905,199.179535 
	C882.375916,198.447952 874.316650,199.408188 866.396423,200.106720 
	C859.889282,200.680649 853.448303,202.004883 846.682861,203.029541 
	C845.941956,203.603058 845.496277,204.143555 844.650024,204.736633 
	C843.171753,204.811203 842.094116,204.833176 840.814087,204.562103 
	C838.760376,203.824738 836.909180,203.380402 834.682739,202.808655 
	C832.191589,202.282684 830.072693,201.899445 827.960144,201.483261 
	C799.885925,195.952454 771.551208,192.615372 742.941162,192.181412 
	C729.817627,191.982376 716.626953,192.093597 703.561157,193.189392 
	C685.062134,194.740891 666.545471,196.682114 648.226318,199.635376 
	C621.582703,203.930634 595.736572,211.521393 570.861145,222.048630 
	C556.328308,228.198883 542.096252,235.059784 527.426147,241.626511 
	C525.564758,241.267639 523.934875,241.061279 522.458374,240.471115 
	C508.266693,234.798752 493.591095,231.490707 478.264648,232.022736 
	C468.500275,232.361679 458.757385,233.319382 448.970398,233.648804 
	C447.556152,231.945053 446.356140,230.315735 444.768219,229.282791 
	C431.738556,220.807114 418.668335,212.392563 405.548035,204.057724 
	C391.882324,195.376358 377.014801,188.660187 361.189789,186.470657 
	C346.904388,184.494156 331.976013,184.746704 317.602295,186.388992 
	C295.588013,188.904282 275.733673,198.048325 258.065369,211.508896 
	C250.576660,217.214142 243.303665,223.226837 236.212982,229.420746 
	C232.180466,232.943268 228.714188,237.114029 224.627991,240.996948 
	C222.167770,242.976425 220.072433,244.951797 217.619965,246.938538 
	C216.551910,246.922577 215.841003,246.895218 214.847595,246.629669 
	C213.762054,246.186676 212.942886,246.030502 212.158325,245.770035 
	C180.884583,235.387085 148.582108,230.282715 115.853539,228.293335 
	C97.130852,227.155258 78.246292,227.113678 59.515720,228.107361 
	C40.328358,229.125259 21.239975,232.008911 1.831674,234.050049 
	C1.370053,234.016113 1.185027,234.008057 1.000000,234.000000 
z"/>
<path fill="#E7E9F2" opacity="1.000000" stroke="none" 
	d="
M1.000000,234.461243 
	C1.185027,234.008057 1.370053,234.016113 1.812346,234.510956 
	C2.060386,248.084183 1.979070,261.171509 2.134500,274.256012 
	C2.153616,275.865265 3.437587,277.459534 3.890706,279.321472 
	C3.168891,281.032928 2.691783,282.483582 2.153353,284.406555 
	C2.092033,309.788818 2.092033,334.698853 2.092033,359.961426 
	C5.096334,359.961426 7.245768,359.961395 9.395203,359.961395 
	C348.884186,359.961823 688.373169,359.962769 1027.862183,359.956207 
	C1031.859985,359.956146 1035.857788,359.859558 1039.898438,360.105194 
	C1039.960938,360.601593 1039.980469,360.800812 1040.000000,361.000000 
	C693.666687,361.000000 347.333313,361.000000 1.000000,361.000000 
	C1.000000,318.892059 1.000000,276.907288 1.000000,234.461243 
z"/>
<path fill="#FCFAFA" opacity="1.000000" stroke="none" 
	d="
M1040.500000,361.000000 
	C1039.980469,360.800812 1039.960938,360.601593 1039.915039,359.655792 
	C1039.899292,335.986847 1039.940308,313.064484 1039.908447,290.142181 
	C1039.890137,277.026093 1039.753418,263.910156 1039.750244,250.420013 
	C1039.834717,248.770233 1039.839111,247.494614 1039.898071,245.749481 
	C1039.948853,242.529007 1039.945068,239.778015 1039.941284,237.027039 
	C1040.117676,237.021362 1040.294189,237.015671 1040.735352,237.004974 
	C1041.000000,278.333344 1041.000000,319.666656 1040.500000,361.000000 
z"/>
<path fill="#ACAEC7" opacity="1.000000" stroke="none" 
	d="
M841.016479,204.855148 
	C842.094116,204.833176 843.171753,204.811203 844.845337,205.103027 
	C847.553345,205.740829 849.693604,205.939514 851.773193,206.407623 
	C881.880981,213.184616 911.888428,220.445374 942.110229,226.666153 
	C968.121765,232.020325 994.417175,235.846375 1021.395081,236.304230 
	C1024.132080,237.262802 1026.556641,238.083435 1029.130615,239.225067 
	C1032.517822,241.707840 1035.755859,243.869629 1038.525513,246.040283 
	C1026.264893,246.367340 1014.448792,246.321381 1002.685181,247.083939 
	C981.941650,248.428604 961.601013,252.506424 941.840271,258.787048 
	C923.871338,264.498169 906.215576,271.215118 888.510010,277.728790 
	C868.482666,285.096710 848.667358,293.054840 828.542847,300.140015 
	C814.691772,305.016571 800.584717,309.277954 786.376526,312.989441 
	C776.813049,315.487640 766.851624,316.430511 757.106689,318.272736 
	C736.989136,322.075775 716.787659,321.484680 696.682617,318.838501 
	C675.631165,316.067719 655.143616,310.739166 635.411316,302.727722 
	C617.145935,295.311890 599.176575,287.323944 583.379761,275.990814 
	C590.647217,275.661041 597.481079,275.723602 604.217041,274.942108 
	C617.834900,273.362061 631.568420,272.128754 644.953552,269.319550 
	C680.956299,261.763550 714.626282,247.113037 748.871765,234.181427 
	C770.115967,226.159317 791.739868,219.115143 813.330750,212.051941 
	C822.376038,209.092865 831.777161,207.221191 841.016479,204.855148 
z"/>
<path fill="#ADAEC7" opacity="1.000000" stroke="none" 
	d="
M527.728882,241.600952 
	C542.096252,235.059784 556.328308,228.198883 570.861145,222.048630 
	C595.736572,211.521393 621.582703,203.930634 648.226318,199.635376 
	C666.545471,196.682114 685.062134,194.740891 703.561157,193.189392 
	C716.626953,192.093597 729.817627,191.982376 742.941162,192.181412 
	C771.551208,192.615372 799.885925,195.952454 827.960144,201.483261 
	C830.072693,201.899445 832.191589,202.282684 834.604980,203.190155 
	C834.091370,204.130646 833.325256,204.790359 832.462524,204.960602 
	C808.990479,209.592957 786.369568,217.133362 764.083984,225.597076 
	C731.083130,238.130249 698.768250,252.608627 664.604004,261.824127 
	C648.836731,266.077179 632.724915,269.428925 616.560547,271.709839 
	C604.472473,273.415588 592.050110,272.752075 579.415344,273.128357 
	C578.159729,272.742523 577.190613,272.491058 576.382263,271.983398 
	C563.733887,264.039368 551.115479,256.047607 538.467957,248.102173 
	C534.925110,245.876480 531.310547,243.764908 527.728882,241.600952 
z"/>
<path fill="#ADAEC7" opacity="1.000000" stroke="none" 
	d="
M4.135411,279.060730 
	C3.437587,277.459534 2.153616,275.865265 2.134500,274.256012 
	C1.979070,261.171509 2.060386,248.084183 2.088940,234.536835 
	C21.239975,232.008911 40.328358,229.125259 59.515720,228.107361 
	C78.246292,227.113678 97.130852,227.155258 115.853539,228.293335 
	C148.582108,230.282715 180.884583,235.387085 212.158325,245.770035 
	C212.942886,246.030502 213.762054,246.186676 214.764679,246.977081 
	C200.874237,260.856995 184.927750,271.660248 167.502975,279.802521 
	C139.284073,292.988678 109.782143,301.165619 78.100540,298.094055 
	C77.067635,297.993896 75.959457,298.670074 74.520721,298.954193 
	C61.569260,294.936005 49.061657,290.674622 36.373512,287.044250 
	C25.736845,284.000854 14.889482,281.693817 4.135411,279.060730 
z"/>
<path fill="#E8A492" opacity="1.000000" stroke="none" 
	d="
M3.890706,279.321472 
	C14.889482,281.693817 25.736845,284.000854 36.373512,287.044250 
	C49.061657,290.674622 61.569260,294.936005 74.763107,299.223145 
	C77.230141,300.026001 79.089149,300.529724 81.188614,301.307129 
	C96.646072,307.583923 111.806282,313.736359 127.095573,319.549316 
	C143.298737,325.709747 159.444397,332.119049 175.959839,337.326508 
	C187.083633,340.833954 198.705841,343.580658 210.286774,344.596893 
	C222.876175,345.701538 235.847076,345.609528 248.336441,343.828674 
	C261.160553,342.000092 273.714172,337.864563 286.188568,334.086273 
	C306.241516,328.012604 323.637756,316.795410 340.118683,304.247040 
	C350.096069,296.650421 359.378479,288.141083 369.264771,279.872559 
	C374.730347,275.277130 379.911987,270.859833 385.076874,266.423035 
	C402.898071,251.114105 422.903503,240.029449 446.326355,234.929108 
	C447.443268,234.641296 448.224060,234.320465 449.004883,233.999634 
	C458.757385,233.319382 468.500275,232.361679 478.264648,232.022736 
	C493.591095,231.490707 508.266693,234.798752 522.458374,240.471115 
	C523.934875,241.061279 525.564758,241.267639 527.426147,241.626526 
	C531.310547,243.764908 534.925110,245.876480 538.467957,248.102173 
	C551.115479,256.047607 563.733887,264.039368 576.382263,271.983398 
	C577.190613,272.491058 578.159729,272.742523 579.498291,273.437378 
	C580.928955,274.508118 581.915466,275.254669 582.901917,276.001251 
	C599.176575,287.323944 617.145935,295.311890 635.411316,302.727722 
	C655.143616,310.739166 675.631165,316.067719 696.682617,318.838501 
	C716.787659,321.484680 736.989136,322.075775 757.106689,318.272736 
	C766.851624,316.430511 776.813049,315.487640 786.376526,312.989441 
	C800.584717,309.277954 814.691772,305.016571 828.542847,300.140015 
	C848.667358,293.054840 868.482666,285.096710 888.510010,277.728790 
	C906.215576,271.215118 923.871338,264.498169 941.840271,258.787048 
	C961.601013,252.506424 981.941650,248.428604 1002.685181,247.083939 
	C1014.448792,246.321381 1026.264893,246.367340 1038.738770,246.083038 
	C1039.420288,246.116928 1039.843384,246.218994 1039.843506,246.218994 
	C1039.839111,247.494614 1039.834717,248.770233 1039.314453,250.467224 
	C1031.468140,250.896042 1024.125366,250.636459 1016.810608,250.978668 
	C1007.707520,251.404541 998.546753,251.798218 989.558350,253.171021 
	C978.632324,254.839767 967.793640,257.240143 957.040588,259.835266 
	C947.278015,262.191345 937.530029,264.796234 928.045288,268.072113 
	C912.747253,273.355835 897.664246,279.263763 882.502563,284.940521 
	C871.198608,289.172882 859.981079,293.646759 848.604736,297.672974 
	C831.192505,303.835297 813.960876,310.814240 796.124207,315.383972 
	C778.559692,319.883972 760.440186,323.035706 742.376892,324.560150 
	C720.710815,326.388611 698.776245,325.461060 677.547302,320.080780 
	C661.096741,315.911560 644.768982,310.893799 628.908020,304.878662 
	C616.462463,300.158783 604.743164,293.475494 592.837524,287.397552 
	C585.184387,283.490509 577.778259,279.099640 570.160828,274.573792 
	C568.461975,273.444977 566.863770,272.667999 565.180420,271.548584 
	C564.721619,270.669769 564.464844,269.952026 563.956543,269.624023 
	C555.499207,264.166504 547.193237,258.437866 538.465149,253.449249 
	C532.510925,250.046066 525.957031,247.692001 519.468323,244.547974 
	C517.946411,243.566330 516.694458,242.606323 515.297607,242.293076 
	C505.765259,240.155518 496.276062,237.050446 486.629547,236.406616 
	C476.162354,235.708008 465.539520,237.341492 454.566986,237.931824 
	C448.773285,239.040176 443.397186,240.174713 437.651733,241.281326 
	C429.941101,244.309387 422.202576,246.673264 415.360626,250.599518 
	C407.125366,255.325363 399.652313,261.379395 391.932404,266.904968 
	C392.015533,266.951538 391.857758,266.841888 391.518066,266.892761 
	C386.386810,271.270111 381.595245,275.596649 376.508118,280.077515 
	C374.883972,281.221039 373.483582,282.127594 372.237823,283.211884 
	C355.257843,297.991119 338.589050,313.145599 318.886871,324.429169 
	C300.790741,334.792999 281.498749,342.056519 261.279999,346.828949 
	C245.123886,350.642426 228.608032,350.520447 212.164154,349.784515 
	C204.758255,349.453033 197.236588,348.473083 190.078293,346.599640 
	C179.233261,343.761261 168.517288,340.269592 158.001648,336.367798 
	C138.945541,329.297119 120.142693,321.545807 101.111488,314.405487 
	C84.267815,308.085876 67.439308,301.622467 50.267159,296.312103 
	C34.483192,291.431000 18.249977,288.002625 2.214675,283.934265 
	C2.691783,282.483582 3.168891,281.032928 3.890706,279.321472 
z"/>
<path fill="#FDFDFD" opacity="1.000000" stroke="none" 
	d="
M1021.082703,236.166290 
	C994.417175,235.846375 968.121765,232.020325 942.110229,226.666153 
	C911.888428,220.445374 881.880981,213.184616 851.773193,206.407623 
	C849.693604,205.939514 847.553345,205.740829 845.245972,205.050446 
	C845.496277,204.143555 845.941956,203.603058 846.958862,203.318726 
	C849.330872,203.664978 851.150574,203.967636 852.929443,203.809830 
	C862.782654,202.935608 872.608948,201.556290 882.478149,201.130234 
	C889.889038,200.810318 897.378296,201.373611 904.782837,202.071457 
	C914.294312,202.967834 923.789673,204.175217 933.231628,205.638000 
	C949.615540,208.176254 965.379272,213.031677 980.908997,218.782349 
	C987.473999,221.213364 994.296814,222.947998 1001.002441,224.999115 
	C1001.002441,224.999115 1001.000000,225.000000 1001.054443,225.351028 
	C1002.126221,226.441986 1003.064331,227.340225 1004.174072,227.895172 
	C1009.785706,230.701324 1015.442078,233.418137 1021.082703,236.166290 
z"/>
<path fill="#CED0DD" opacity="1.000000" stroke="none" 
	d="
M583.379761,275.990814 
	C581.915466,275.254669 580.928955,274.508118 579.859558,273.452545 
	C592.050110,272.752075 604.472473,273.415588 616.560547,271.709839 
	C632.724915,269.428925 648.836731,266.077179 664.604004,261.824127 
	C698.768250,252.608627 731.083130,238.130249 764.083984,225.597076 
	C786.369568,217.133362 808.990479,209.592957 832.462524,204.960602 
	C833.325256,204.790359 834.091370,204.130646 834.980225,203.317566 
	C836.909180,203.380402 838.760376,203.824738 840.814087,204.562103 
	C831.777161,207.221191 822.376038,209.092865 813.330750,212.051941 
	C791.739868,219.115143 770.115967,226.159317 748.871765,234.181427 
	C714.626282,247.113037 680.956299,261.763550 644.953552,269.319550 
	C631.568420,272.128754 617.834900,273.362061 604.217041,274.942108 
	C597.481079,275.723602 590.647217,275.661041 583.379761,275.990814 
z"/>
<path fill="#F5F5F4" opacity="1.000000" stroke="none" 
	d="
M448.970398,233.648804 
	C448.224060,234.320465 447.443268,234.641296 446.288879,234.590668 
	C444.727692,232.876129 443.768799,231.176208 442.316833,230.245682 
	C429.204437,221.842377 416.253998,213.139374 402.744812,205.418823 
	C393.769684,200.289505 384.211823,195.886490 374.442871,192.533127 
	C366.734222,189.886993 358.334167,189.155411 350.191711,187.892578 
	C330.708221,184.870804 311.711792,187.946106 293.515991,194.566040 
	C273.712341,201.770935 256.832245,214.056610 241.235001,228.153473 
	C236.126297,232.770737 230.432236,236.740295 225.003036,241.003204 
	C225.000214,241.000320 224.992905,240.992859 224.992889,240.992859 
	C228.714188,237.114029 232.180466,232.943268 236.212982,229.420746 
	C243.303665,223.226837 250.576660,217.214142 258.065369,211.508896 
	C275.733673,198.048325 295.588013,188.904282 317.602295,186.388992 
	C331.976013,184.746704 346.904388,184.494156 361.189789,186.470657 
	C377.014801,188.660187 391.882324,195.376358 405.548035,204.057724 
	C418.668335,212.392563 431.738556,220.807114 444.768219,229.282791 
	C446.356140,230.315735 447.556152,231.945053 448.970398,233.648804 
z"/>
<path fill="#CED0DD" opacity="1.000000" stroke="none" 
	d="
M80.948151,301.033447 
	C79.089149,300.529724 77.230141,300.026001 75.128754,299.253326 
	C75.959457,298.670074 77.067635,297.993896 78.100540,298.094055 
	C109.782143,301.165619 139.284073,292.988678 167.502975,279.802521 
	C184.927750,271.660248 200.874237,260.856995 215.047180,247.215271 
	C215.841003,246.895218 216.551910,246.922577 217.947540,246.975769 
	C219.070786,247.019775 219.509293,247.037949 219.966797,247.290894 
	C219.985794,247.525650 220.003143,247.997360 219.657104,248.044510 
	C216.684158,250.074448 213.987137,251.971512 211.441544,254.053711 
	C192.391495,269.635864 171.524948,282.051880 148.291641,290.337341 
	C126.516068,298.102997 104.148575,302.206818 80.948151,301.033447 
z"/>
<path fill="#F5F5F4" opacity="1.000000" stroke="none" 
	d="
M1000.802124,224.719666 
	C994.296814,222.947998 987.473999,221.213364 980.908997,218.782349 
	C965.379272,213.031677 949.615540,208.176254 933.231628,205.638000 
	C923.789673,204.175217 914.294312,202.967834 904.782837,202.071457 
	C897.378296,201.373611 889.889038,200.810318 882.478149,201.130234 
	C872.608948,201.556290 862.782654,202.935608 852.929443,203.809830 
	C851.150574,203.967636 849.330872,203.664978 847.254028,203.285736 
	C853.448303,202.004883 859.889282,200.680649 866.396423,200.106720 
	C874.316650,199.408188 882.375916,198.447952 890.227905,199.179535 
	C908.957764,200.924637 927.865967,202.353958 946.201782,206.259674 
	C963.089478,209.856903 979.333679,216.489914 995.832947,221.872620 
	C997.522034,222.423645 999.016846,223.570068 1000.802124,224.719666 
z"/>
<path fill="#F5F5F4" opacity="1.000000" stroke="none" 
	d="
M1021.395081,236.304230 
	C1015.442078,233.418137 1009.785706,230.701324 1004.174072,227.895172 
	C1003.064331,227.340225 1002.126221,226.441986 1001.054443,225.349594 
	C1004.504395,226.234039 1008.079346,227.303558 1011.497314,228.745377 
	C1017.237793,231.166916 1022.878296,233.825333 1028.767090,236.984344 
	C1028.975952,238.024445 1028.978638,238.464249 1028.981323,238.904068 
	C1026.556641,238.083435 1024.132080,237.262802 1021.395081,236.304230 
z"/>
<path fill="#CED0DD" opacity="1.000000" stroke="none" 
	d="
M1029.130615,239.225067 
	C1028.978638,238.464249 1028.975952,238.024445 1028.981689,237.252747 
	C1032.339355,236.949631 1035.688477,236.978394 1039.489502,237.017090 
	C1039.945068,239.778015 1039.948853,242.529007 1039.897949,245.749481 
	C1039.843384,246.218994 1039.420288,246.116928 1039.207031,246.074188 
	C1035.755859,243.869629 1032.517822,241.707840 1029.130615,239.225067 
z"/>
<path fill="#F5F5F4" opacity="1.000000" stroke="none" 
	d="
M219.947815,247.056122 
	C219.509293,247.037949 219.070786,247.019775 218.304688,246.964371 
	C220.072433,244.951797 222.167770,242.976425 224.628006,240.996964 
	C224.992905,240.992859 225.000214,241.000320 224.952866,241.335968 
	C223.252945,243.466446 221.600388,245.261292 219.947815,247.056122 
z"/>
<path fill="#ADAEC7" opacity="1.000000" stroke="none" 
	d="
M570.261414,274.925659 
	C577.778259,279.099640 585.184387,283.490509 592.837524,287.397552 
	C604.743164,293.475494 616.462463,300.158783 628.908020,304.878662 
	C644.768982,310.893799 661.096741,315.911560 677.547302,320.080780 
	C698.776245,325.461060 720.710815,326.388611 742.376892,324.560150 
	C760.440186,323.035706 778.559692,319.883972 796.124207,315.383972 
	C813.960876,310.814240 831.192505,303.835297 848.604736,297.672974 
	C859.981079,293.646759 871.198608,289.172882 882.502563,284.940521 
	C897.664246,279.263763 912.747253,273.355835 928.045288,268.072113 
	C937.530029,264.796234 947.278015,262.191345 957.040588,259.835266 
	C967.793640,257.240143 978.632324,254.839767 989.558350,253.171021 
	C998.546753,251.798218 1007.707520,251.404541 1016.810608,250.978668 
	C1024.125366,250.636459 1031.468140,250.896042 1039.234253,250.841385 
	C1039.753418,263.910156 1039.890137,277.026093 1039.908447,290.142181 
	C1039.940308,313.064484 1039.899292,335.986847 1039.872070,359.358612 
	C1035.857788,359.859558 1031.859985,359.956146 1027.862183,359.956207 
	C688.373169,359.962769 348.884186,359.961823 9.395203,359.961395 
	C7.245768,359.961395 5.096334,359.961426 2.092033,359.961426 
	C2.092033,334.698853 2.092033,309.788818 2.153355,284.406555 
	C18.249977,288.002625 34.483192,291.431000 50.267159,296.312103 
	C67.439308,301.622467 84.267815,308.085876 101.111488,314.405487 
	C120.142693,321.545807 138.945541,329.297119 158.001648,336.367798 
	C168.517288,340.269592 179.233261,343.761261 190.078293,346.599640 
	C197.236588,348.473083 204.758255,349.453033 212.164154,349.784515 
	C228.608032,350.520447 245.123886,350.642426 261.279999,346.828949 
	C281.498749,342.056519 300.790741,334.792999 318.886871,324.429169 
	C338.589050,313.145599 355.257843,297.991119 372.237823,283.211884 
	C373.483582,282.127594 374.883972,281.221039 376.997223,280.084747 
	C383.179657,279.605865 388.577332,279.274078 394.427795,278.982239 
	C397.588959,278.867004 400.297333,278.711761 403.393860,278.665100 
	C405.499329,278.469574 407.216705,278.165436 409.280365,277.884491 
	C410.084991,277.853699 410.543274,277.799683 411.397156,277.814117 
	C413.515137,277.559845 415.237549,277.237183 417.382629,276.939270 
	C422.868774,276.180817 427.932251,275.397614 433.318726,274.699524 
	C434.411621,274.486786 435.181549,274.188904 436.295288,273.912415 
	C437.089844,273.854095 437.540588,273.774384 438.384521,273.756104 
	C443.518799,272.546875 448.259796,271.276245 453.347412,269.990723 
	C454.795807,269.636475 455.897614,269.297119 457.368835,268.972961 
	C458.964447,268.384827 460.190674,267.781464 461.800629,267.193512 
	C466.119019,266.088196 470.053711,264.967438 474.335754,263.850861 
	C476.119049,263.228851 477.555054,262.602661 479.360657,261.946655 
	C482.832245,260.641388 485.934235,259.365997 489.417175,258.067139 
	C491.527069,257.647552 493.255951,257.251465 495.194275,257.152954 
	C505.106995,260.727570 514.616760,264.880859 524.558716,267.077087 
	C539.635193,270.407471 555.012146,272.377625 570.261414,274.925659 
z"/>
<path fill="#ADAEC7" opacity="1.000000" stroke="none" 
	d="
M81.188614,301.307129 
	C104.148575,302.206818 126.516068,298.102997 148.291641,290.337341 
	C171.524948,282.051880 192.391495,269.635864 211.441544,254.053711 
	C213.987137,251.971512 216.684158,250.074448 220.000519,248.188446 
	C236.478867,253.454727 252.238968,258.714233 268.062622,263.774963 
	C300.874054,274.268768 334.531372,279.612732 368.973145,280.041809 
	C359.378479,288.141083 350.096069,296.650421 340.118683,304.247040 
	C323.637756,316.795410 306.241516,328.012604 286.188568,334.086273 
	C273.714172,337.864563 261.160553,342.000092 248.336441,343.828674 
	C235.847076,345.609528 222.876175,345.701538 210.286774,344.596893 
	C198.705841,343.580658 187.083633,340.833954 175.959839,337.326508 
	C159.444397,332.119049 143.298737,325.709747 127.095573,319.549316 
	C111.806282,313.736359 96.646072,307.583923 81.188614,301.307129 
z"/>
<path fill="#FFFEFE" opacity="1.000000" stroke="none" 
	d="
M369.264771,279.872559 
	C334.531372,279.612732 300.874054,274.268768 268.062622,263.774963 
	C252.238968,258.714233 236.478867,253.454727 220.346573,248.141296 
	C220.003143,247.997360 219.985794,247.525650 219.966812,247.290894 
	C221.600388,245.261292 223.252945,243.466446 224.955688,241.338837 
	C230.432236,236.740295 236.126297,232.770737 241.235001,228.153473 
	C256.832245,214.056610 273.712341,201.770935 293.515991,194.566040 
	C311.711792,187.946106 330.708221,184.870804 350.191711,187.892578 
	C358.334167,189.155411 366.734222,189.886993 374.442871,192.533127 
	C384.211823,195.886490 393.769684,200.289505 402.744812,205.418823 
	C416.253998,213.139374 429.204437,221.842377 442.316833,230.245682 
	C443.768799,231.176208 444.727692,232.876129 445.952759,234.557648 
	C422.903503,240.029449 402.898071,251.114105 385.076874,266.423035 
	C379.911987,270.859833 374.730347,275.277130 369.264771,279.872559 
z"/>
<path fill="#FFFFFF" opacity="1.000000" stroke="none" 
	d="
M432.995728,274.614410 
	C427.932251,275.397614 422.868774,276.180817 417.129639,276.679291 
	C414.636536,276.844940 412.819061,277.295319 411.001587,277.745697 
	C410.543274,277.799683 410.084991,277.853699 409.027435,277.636169 
	C406.620697,277.761932 404.813202,278.159210 403.005707,278.556488 
	C400.297333,278.711761 397.588959,278.867004 394.211487,278.724396 
	C391.702209,277.355408 389.862000,276.284302 389.265747,275.937256 
	C390.337250,272.177307 391.097504,269.509613 391.857758,266.841888 
	C391.857758,266.841888 392.015533,266.951538 392.324493,266.949066 
	C396.237701,265.554840 402.033234,265.033508 403.001862,262.594910 
	C405.194733,257.074188 409.187775,257.734192 413.176697,256.871765 
	C414.587433,256.566772 415.687347,255.038025 417.072632,254.361954 
	C421.520630,252.191116 425.858551,249.323151 430.577942,248.321793 
	C434.732941,247.440170 437.772736,245.827408 438.021057,241.309265 
	C443.397186,240.174713 448.773285,239.040176 454.725677,238.247635 
	C463.974609,242.955460 472.692963,247.233994 481.294891,251.734970 
	C484.258911,253.285889 488.865967,253.061844 489.036194,258.090607 
	C485.934235,259.365997 482.832245,260.641388 479.188293,261.628784 
	C475.140198,258.545013 473.940277,260.035980 473.988434,263.846680 
	C470.053711,264.967438 466.119019,266.088196 461.386230,267.140656 
	C459.391876,267.700836 458.195679,268.329285 456.999451,268.957764 
	C455.897614,269.297119 454.795807,269.636475 453.305267,269.626801 
	C452.286041,268.577576 451.449921,267.170471 451.056396,267.284943 
	C446.345520,268.655121 440.668243,268.187195 437.991302,273.694672 
	C437.540588,273.774384 437.089844,273.854095 436.105774,273.683289 
	C434.713531,273.826660 433.854614,274.220520 432.995728,274.614410 
z"/>
<path fill="#FCFAFA" opacity="1.000000" stroke="none" 
	d="
M489.417175,258.067139 
	C488.865967,253.061844 484.258911,253.285889 481.294891,251.734970 
	C472.692963,247.233994 463.974609,242.955460 455.143250,238.273834 
	C465.539520,237.341492 476.162354,235.708008 486.629547,236.406616 
	C496.276062,237.050446 505.765259,240.155518 515.297607,242.293076 
	C516.694458,242.606323 517.946411,243.566330 519.138611,244.788513 
	C512.283936,248.514633 505.556091,251.679306 498.501862,254.881378 
	C497.111938,255.564285 496.048401,256.209839 494.984833,256.855377 
	C493.255951,257.251465 491.527069,257.647552 489.417175,258.067139 
z"/>
<path fill="#AEAEC6" opacity="1.000000" stroke="none" 
	d="
M498.828217,254.843994 
	C505.556091,251.679306 512.283936,248.514633 519.341553,245.109406 
	C525.957031,247.692001 532.510925,250.046066 538.465149,253.449249 
	C547.193237,258.437866 555.499207,264.166504 563.956543,269.624023 
	C564.464844,269.952026 564.721619,270.669769 564.717163,271.594360 
	C542.648926,270.199860 521.789001,264.763428 501.351318,257.541687 
	C500.321167,257.177673 499.660767,255.767227 498.828217,254.843994 
z"/>
<path fill="#CED0DD" opacity="1.000000" stroke="none" 
	d="
M498.501862,254.881378 
	C499.660767,255.767227 500.321167,257.177673 501.351318,257.541687 
	C521.789001,264.763428 542.648926,270.199860 564.802246,271.936829 
	C566.863770,272.667999 568.461975,273.444977 570.160828,274.573792 
	C555.012146,272.377625 539.635193,270.407471 524.558716,267.077087 
	C514.616760,264.880859 505.106995,260.727570 495.194275,257.152954 
	C496.048401,256.209839 497.111938,255.564285 498.501862,254.881378 
z"/>
<path fill="#FCFAFA" opacity="1.000000" stroke="none" 
	d="
M437.651733,241.281342 
	C437.772736,245.827408 434.732941,247.440170 430.577942,248.321793 
	C425.858551,249.323151 421.520630,252.191116 417.072632,254.361954 
	C415.687347,255.038025 414.587433,256.566772 413.176697,256.871765 
	C409.187775,257.734192 405.194733,257.074188 403.001862,262.594910 
	C402.033234,265.033508 396.237701,265.554840 392.241364,266.902527 
	C399.652313,261.379395 407.125366,255.325363 415.360626,250.599518 
	C422.202576,246.673264 429.941101,244.309387 437.651733,241.281342 
z"/>
<path fill="#FCFAFA" opacity="1.000000" stroke="none" 
	d="
M391.518066,266.892761 
	C391.097504,269.509613 390.337250,272.177307 389.265747,275.937256 
	C389.862000,276.284302 391.702209,277.355408 393.758728,278.684387 
	C388.577332,279.274078 383.179657,279.605865 377.292847,279.930420 
	C381.595245,275.596649 386.386810,271.270111 391.518066,266.892761 
z"/>
<path fill="#FCFAFA" opacity="1.000000" stroke="none" 
	d="
M438.384521,273.756104 
	C440.668243,268.187195 446.345520,268.655121 451.056396,267.284943 
	C451.449921,267.170471 452.286041,268.577576 452.958679,269.641693 
	C448.259796,271.276245 443.518799,272.546875 438.384521,273.756104 
z"/>
<path fill="#FCFAFA" opacity="1.000000" stroke="none" 
	d="
M474.335754,263.850891 
	C473.940277,260.035980 475.140198,258.545013 478.818665,261.658630 
	C477.555054,262.602661 476.119049,263.228851 474.335754,263.850891 
z"/>
<path fill="#FCFAFA" opacity="1.000000" stroke="none" 
	d="
M411.397156,277.814117 
	C412.819061,277.295319 414.636536,276.844940 416.706970,276.654541 
	C415.237549,277.237183 413.515137,277.559845 411.397156,277.814117 
z"/>
<path fill="#FCFAFA" opacity="1.000000" stroke="none" 
	d="
M403.393860,278.665100 
	C404.813202,278.159210 406.620697,277.761932 408.681122,277.612976 
	C407.216705,278.165436 405.499329,278.469574 403.393860,278.665100 
z"/>
<path fill="#FCFAFA" opacity="1.000000" stroke="none" 
	d="
M457.368835,268.972992 
	C458.195679,268.329285 459.391876,267.700836 461.002502,267.125214 
	C460.190674,267.781464 458.964447,268.384827 457.368835,268.972992 
z"/>
<path fill="#FCFAFA" opacity="1.000000" stroke="none" 
	d="
M433.318726,274.699524 
	C433.854614,274.220520 434.713531,273.826660 435.761963,273.661896 
	C435.181549,274.188904 434.411621,274.486786 433.318726,274.699524 
z"/>
</svg>